<svg height="480pt" viewBox="0 0 480 480.0033" width="480pt" xmlns="http://www.w3.org/2000/svg"><path fill="white" d="m111.472656 21.433594c-7.535156-13.382813-21.769531-21.597656-37.128906-21.42968775-15.359375.16406275-29.410156 8.68749975-36.652344 22.23046875-2.433594-.601563-4.929687-.90625-7.433594-.902344-16.449218-.238281-29.984374 12.886719-30.257812 29.335938.0234375 2.523437.382812 5.03125 1.074219 7.457031.957031 3.476562 4.121093 5.882812 7.726562 5.878906h126.402344c3.601563.003906 6.761719-2.40625 7.71875-5.878906.691406-2.425781 1.054687-4.933594 1.078125-7.457031-.167969-8.285157-3.761719-16.132813-9.921875-21.671875-6.164063-5.539063-14.347656-8.273438-22.605469-7.5625zm-95.183594 26.570312c1.59375-6.382812 7.390626-10.8125 13.96875-10.664062 2.761719 0 5.46875.769531 7.816407 2.222656 2.179687 1.355469 4.878906 1.582031 7.257812.609375 2.375-.976563 4.140625-3.03125 4.742188-5.527344 2.929687-11.183593 13.152343-18.898437 24.710937-18.640625 10.929688-.21875 20.75 6.648438 24.296875 16.992188 1.359375 4.203125 5.867188 6.507812 10.070313 5.152344 1.480468-.507813 3.03125-.777344 4.59375-.800782 6.574218-.148437 12.371094 4.277344 13.96875 10.65625zm0 0"/><path fill="white" d="m447.472656 69.433594c-7.535156-13.382813-21.769531-21.597656-37.128906-21.429688-15.359375.164063-29.410156 8.6875-36.652344 22.230469-2.433594-.601563-4.929687-.90625-7.433594-.902344-16.449218-.238281-29.984374 12.886719-30.257812 29.335938.023438 2.523437.382812 5.03125 1.074219 7.457031.957031 3.476562 4.121093 5.882812 7.726562 5.878906h126.402344c3.601563.003906 6.761719-2.40625 7.71875-5.878906.691406-2.425781 1.054687-4.933594 1.078125-7.457031-.179688-8.28125-3.773438-16.121094-9.9375-21.65625-6.160156-5.535157-14.335938-8.277344-22.589844-7.578125zm-95.183594 26.570312c1.59375-6.382812 7.390626-10.8125 13.96875-10.664062 2.761719 0 5.46875.769531 7.816407 2.222656 2.179687 1.355469 4.878906 1.582031 7.257812.609375 2.375-.976563 4.140625-3.03125 4.742188-5.527344 3.097656-10.730469 12.75-18.25 23.914062-18.625 11.160157-.375 21.296875 6.476563 25.109375 16.976563 1.359375 4.203125 5.867188 6.507812 10.070313 5.152344 1.480469-.507813 3.03125-.777344 4.59375-.800782 6.566406-.140625 12.359375 4.28125 13.953125 10.65625zm0 0"/><path fill="white" d="m232 50.667969c.023438 2.523437.382812 5.03125 1.074219 7.457031.957031 3.476562 4.121093 5.882812 7.726562 5.878906h126.402344c3.601563.003906 6.761719-2.40625 7.71875-5.878906.691406-2.425781 1.054687-4.933594 1.078125-7.457031-.167969-8.285157-3.761719-16.132813-9.921875-21.671875-6.164063-5.539063-14.347656-8.273438-22.605469-7.5625-7.535156-13.382813-21.769531-21.597656-37.128906-21.42968775-15.359375.16406275-29.410156 8.68749975-36.652344 22.23046875-2.433594-.601563-4.929687-.90625-7.433594-.902344-16.449218-.238281-29.984374 12.886719-30.257812 29.335938zm30.257812-13.328125c2.761719 0 5.46875.769531 7.816407 2.222656 2.179687 1.355469 4.878906 1.582031 7.257812.609375 2.375-.976563 4.140625-3.03125 4.742188-5.527344 3.097656-10.730469 12.75-18.25 23.914062-18.625 11.160157-.375 21.296875 6.476563 25.109375 16.976563 1.359375 4.203125 5.867188 6.507812 10.070313 5.152344 1.480469-.507813 3.03125-.777344 4.59375-.800782 6.566406-.140625 12.359375 4.28125 13.953125 10.65625h-111.425782c1.59375-6.382812 7.390626-10.8125 13.96875-10.664062zm0 0"/><path fill="white" d="m456 200.003906h-32v-8h24c4.421875 0 8-3.582031 8-8 0-4.417968-3.578125-8-8-8h-31.832031l-136.167969-7.570312v-.429688c0-4.417968-3.578125-8-8-8h-31.589844l-40.410156-4v-20c0-4.417968-3.578125-8-8-8h-32c-4.417969 0-8 3.582032-8 8v336c0 4.417969 3.582031 8 8 8h32c4.421875 0 8-3.582031 8-8v-211.960937l40.410156-4.039063h31.589844c4.421875 0 8-3.582031 8-8v-.433594l136.167969-7.566406h31.832031c4.421875 0 8-3.582031 8-8 0-4.417968-3.578125-8-8-8h-24v-8h32c4.421875 0 8-3.582031 8-8 0-4.417968-3.578125-8-8-8zm-272 264h-16v-320h16zm16-292 32 3.199219v65.601563l-32 3.199218zm48 68v-64h16v64zm32-55.542968 128 7.109374v32.863282l-128 7.113281zm0 0"/><path  fill="white" d="m326.035156 130.59375c-2.453125-.398438-4.847656-1.085938-7.136718-2.046875-3.261719-1.335937-6.660157-2.304687-10.136719-2.878906-3.460938-.671875-6.980469-.964844-10.503907-.863281-4.972656.078124-9.910156-.820313-14.535156-2.648438-3.261718-1.339844-6.660156-2.308594-10.136718-2.890625-4.277344-.644531-8.296876 2.226563-9.066407 6.484375-.773437 4.253906 1.976563 8.355469 6.210938 9.253906 2.449219.398438 4.84375 1.085938 7.136719 2.046875 6.566406 2.578125 13.574218 3.855469 20.628906 3.753907 2.484375-.09375 4.96875.109374 7.402344.605468 2.453124.398438 4.855468 1.078125 7.152343 2.03125 3.253907 1.34375 6.648438 2.3125 10.117188 2.890625 3.464843.679688 6.992187.96875 10.523437.863281 4.984375-.082031 9.9375.816407 14.574219 2.648438 3.265625 1.34375 6.667969 2.316406 10.152344 2.894531.472656.089844.953125.132813 1.433593.128907 4.140626 0 7.59375-3.160157 7.964844-7.285157s-2.46875-7.847656-6.542968-8.585937c-2.457032-.394532-4.855469-1.082032-7.152344-2.039063-3.253906-1.335937-6.648438-2.304687-10.121094-2.890625-3.460938-.671875-6.984375-.964844-10.511719-.871094-2.5.09375-5-.105468-7.453125-.601562zm0 0"/><path fill="white" d="m318.730469 273.003906c-2.445313.484375-4.933594.6875-7.425781.597656-3.523438-.109374-7.046876.179688-10.503907.875-3.480469.578126-6.886719 1.546876-10.152343 2.886719-2.292969.960938-4.695313 1.648438-7.152344 2.046875-2.4375.492188-4.921875.695313-7.40625.601563-3.523438-.097657-7.042969.1875-10.503906.855469-3.480469.582031-6.882813 1.558593-10.144532 2.902343-2.289062.949219-4.683594 1.632813-7.128906 2.035157-2.4375.476562-4.921875.679687-7.40625.605468-3.515625-.101562-7.035156.183594-10.488281.847656-4.351563.789063-7.238281 4.957032-6.449219 9.304688.789062 4.351562 4.957031 7.238281 9.304688 6.449219 2.4375-.480469 4.925781-.683594 7.410156-.609375 7.046875.109375 14.046875-1.160156 20.605468-3.742188 2.3125-.964844 4.726563-1.652344 7.199219-2.050781 2.421875-.496094 4.890625-.703125 7.363281-.605469 7.0625.113282 14.078126-1.164062 20.644532-3.761718 2.3125-.957032 4.730468-1.644532 7.203125-2.046876 2.441406-.496093 4.933593-.695312 7.421875-.601562 3.523437.109375 7.046875-.179688 10.503906-.863281 4.234375-.898438 6.984375-4.996094 6.210938-9.253907-.769532-4.257812-4.789063-7.128906-9.066407-6.480468zm0 0"/><path fill="white" d="m22.402344 143.300781c3.234375-2.730469 3.78125-7.507812 1.25-10.898437-2.53125-3.394532-7.265625-4.226563-10.800782-1.902344-7.421874 5.433594-12.109374 13.824219-12.851562 22.992188.402344 8.953124 5.210938 17.128906 12.839844 21.832031 11.3125 6.578125 24.339844 9.601562 37.394531 8.679687 18.769531-.429687 37.4375-2.890625 55.679687-7.335937 2.855469-.609375 5.152344-2.722657 5.992188-5.515625.84375-2.796875.097656-5.828125-1.945312-7.910156-2.042969-2.085938-5.0625-2.890626-7.871094-2.101563-23.648438 5.832031-66.207032 11.359375-79.726563 1.335937-2.882812-2.152343-6.363281-5.441406-6.363281-8.953124.738281-4.105469 3.03125-7.769532 6.402344-10.222657zm0 0"/><path fill="white" d="m110.089844 297.132812c-23.648438 5.832032-66.207032 11.359376-79.726563 1.335938-2.882812-2.144531-6.363281-5.433594-6.363281-8.945312.738281-4.105469 3.03125-7.769532 6.402344-10.222657 3.234375-2.730469 3.78125-7.507812 1.25-10.898437-2.53125-3.394532-7.265625-4.226563-10.800782-1.902344-7.421874 5.433594-12.109374 13.824219-12.851562 22.992188.402344 8.953124 5.210938 17.128906 12.839844 21.832031 11.3125 6.578125 24.339844 9.601562 37.394531 8.679687 18.769531-.429687 37.4375-2.890625 55.679687-7.335937 2.855469-.609375 5.152344-2.722657 5.992188-5.515625.84375-2.796875.097656-5.828125-1.945312-7.910156-2.042969-2.085938-5.0625-2.890626-7.871094-2.101563zm0 0"/><path fill="white" d="m134.089844 232.234375c-23.648438 5.839844-66.207032 11.359375-79.726563 1.335937-2.882812-2.136718-6.363281-5.421874-6.363281-8.933593.734375-4.109375 3.027344-7.777344 6.402344-10.234375 3.234375-2.730469 3.78125-7.503906 1.25-10.898438-2.53125-3.390625-7.265625-4.222656-10.800782-1.902344-7.417968 5.4375-12.109374 13.828126-12.851562 22.992188.414062 8.945312 5.21875 17.109375 12.839844 21.808594 11.3125 6.578125 24.34375 9.601562 37.394531 8.671875 18.769531-.433594 37.4375-2.890625 55.679687-7.335938 2.789063-.667969 5.007813-2.78125 5.8125-5.535156.808594-2.753906.074219-5.730469-1.917968-7.796875-1.992188-2.066406-4.9375-2.90625-7.71875-2.203125zm0 0"/></svg>